<?xml version="1.0" encoding="UTF-8" standalone="no"?>
<!-- Created with Inkscape (http://www.inkscape.org/) -->

<svg
   width="1424"
   height="512"
   version="1.1"
   viewBox="0 0 376.77 135.47"
   id="svg866"
   sodipodi:docname="pollymc-header.svg"
   inkscape:version="1.2.1 (9c6d41e410, 2022-07-14)"
   xml:space="preserve"
   xmlns:inkscape="http://www.inkscape.org/namespaces/inkscape"
   xmlns:sodipodi="http://sodipodi.sourceforge.net/DTD/sodipodi-0.dtd"
   xmlns="http://www.w3.org/2000/svg"
   xmlns:svg="http://www.w3.org/2000/svg"><sodipodi:namedview
     id="namedview868"
     pagecolor="#8a8a8a"
     bordercolor="#666666"
     borderopacity="1.0"
     inkscape:pageshadow="2"
     inkscape:pageopacity="0"
     inkscape:pagecheckerboard="0"
     showgrid="false"
     inkscape:zoom="0.61938202"
     inkscape:cx="731.37415"
     inkscape:cy="261.55102"
     inkscape:window-width="1920"
     inkscape:window-height="994"
     inkscape:window-x="0"
     inkscape:window-y="0"
     inkscape:window-maximized="1"
     inkscape:current-layer="svg866"
     inkscape:showpageshadow="2"
     inkscape:deskcolor="#343434" /><defs
     id="defs831"><linearGradient
       id="linearGradient84726"
       x1="4.4979"
       x2="12.435"
       y1="3.8011"
       y2="9.5681"
       gradientUnits="userSpaceOnUse"><stop
         stop-color="#88b858"
         offset="0"
         id="stop824" /><stop
         stop-color="#72b147"
         offset=".5"
         id="stop826" /><stop
         stop-color="#5a9a30"
         offset="1"
         id="stop828" /></linearGradient><inkscape:path-effect
       effect="powerclip"
       id="path-effect5638"
       is_visible="true"
       lpeversion="1"
       inverse="true"
       flatten="false"
       hide_clip="false"
       message="Use fill-rule evenodd on &lt;b&gt;fill and stroke&lt;/b&gt; dialog if no flatten result after convert clip to paths." /><inkscape:path-effect
       effect="powerclip"
       id="path-effect5562"
       is_visible="true"
       lpeversion="1"
       inverse="true"
       flatten="false"
       hide_clip="false"
       message="Use fill-rule evenodd on &lt;b&gt;fill and stroke&lt;/b&gt; dialog if no flatten result after convert clip to paths." /><inkscape:path-effect
       effect="powerclip"
       id="path-effect5535"
       is_visible="true"
       lpeversion="1"
       inverse="true"
       flatten="false"
       hide_clip="false"
       message="Use fill-rule evenodd on &lt;b&gt;fill and stroke&lt;/b&gt; dialog if no flatten result after convert clip to paths." /><clipPath
       clipPathUnits="userSpaceOnUse"
       id="clipPath5628"><g
         id="g5636"
         style="display:none"><rect
           style="display:block;fill:#000000;fill-opacity:1"
           id="rect5630"
           width="12"
           height="6"
           x="44"
           y="46" /><rect
           style="fill:#000000;fill-opacity:1"
           id="rect5632"
           width="12"
           height="3"
           x="32"
           y="49" /><rect
           style="fill:#000000;fill-opacity:1"
           id="rect5634"
           width="2"
           height="18"
           x="54"
           y="28" /></g><path
         id="lpe_path-effect5638"
         style="display:block"
         class="powerclip"
         d="M 3,11 H 61 V 57 H 3 Z m 41,35 v 6 h 12 v -6 z m -12,3 v 3 H 44 V 49 Z M 54,28 v 18 h 2 V 28 Z" /></clipPath></defs><g
     id="g1157"
     transform="translate(0,-15.491025)"><g
       id="pollymc-header-text-3"
       fill="white"
       transform="matrix(6.9306,0,0,6.9306,-695.39957,-649.40511)"
       stroke-width="0.26458"
       aria-label="PolyMC"
       style="fill:#ffffff;fill-opacity:1"
       inkscape:label="pollymc-header-text-3"><g
         aria-label="PollyMC"
         id="text4534"
         style="font-size:7.63541px;line-height:1.25;font-family:'Trade Winds';-inkscape-font-specification:'Trade Winds, Normal';letter-spacing:-0.610833px;word-spacing:0px;stroke-width:0.0101009"><path
           id="path366"
           d="M 150.77737 101.99132 C 150.75904 101.99144 150.74054 101.99178 150.7219 101.99236 C 150.57276 101.99736 150.44103 102.00985 150.32671 102.02972 C 150.25711 102.03965 150.18254 102.05705 150.10301 102.08191 C 150.02348 102.10678 149.94643 102.13161 149.87186 102.15648 C 149.74261 102.19621 149.62082 102.22356 149.5065 102.2385 C 149.39713 102.24843 149.29025 102.27824 149.18587 102.32797 C 149.166 102.33791 149.13865 102.35285 149.10385 102.37271 C 149.07405 102.38765 149.04171 102.40504 149.00691 102.42491 C 148.97705 102.44478 148.94724 102.46462 148.91744 102.48449 C 148.89257 102.50435 148.87517 102.52175 148.86524 102.53668 C 148.81053 102.60131 148.76828 102.68084 148.73848 102.77529 C 148.71361 102.86479 148.67384 102.94184 148.61918 103.00644 C 148.57943 103.04623 148.53469 103.08103 148.48496 103.11083 C 148.43528 103.13569 148.39054 103.16803 148.35074 103.20776 C 148.32588 103.23263 148.3035 103.25991 148.28364 103.28971 C 148.2687 103.31458 148.25131 103.33948 148.23144 103.36435 C 148.1867 103.42397 148.14196 103.47866 148.09723 103.52839 C 148.05749 103.57808 148.01772 103.63276 147.97792 103.69243 C 147.89342 103.82665 147.81388 103.96335 147.73932 104.10254 C 147.66474 104.23675 147.60509 104.38588 147.56036 104.54992 C 147.55009 104.58967 147.54266 104.63441 147.53799 104.68414 C 147.53306 104.73385 147.5231 104.78108 147.50817 104.82581 C 147.49823 104.86061 147.48337 104.89287 147.4635 104.92267 C 147.44857 104.95247 147.43608 104.98726 147.42614 105.02706 C 147.37641 105.24578 147.35902 105.46699 147.37395 105.69069 C 147.39385 105.91438 147.43113 106.12813 147.4858 106.33194 C 147.54049 106.39159 147.59517 106.45621 147.64984 106.52581 C 147.7045 106.59043 147.7219 106.6824 147.70203 106.8017 C 147.78654 106.85141 147.84619 106.91603 147.88099 106.99557 C 147.92077 107.07013 147.96799 107.14221 148.02266 107.2118 C 148.06245 107.27639 148.11465 107.32859 148.17925 107.36839 C 148.24385 107.40816 148.2886 107.46284 148.31346 107.53243 C 148.49242 107.63185 148.69623 107.72133 148.92489 107.80086 C 149.15852 107.88536 149.39465 107.94502 149.63325 107.97982 C 149.79233 107.99968 149.94394 108.00466 150.0881 107.99473 C 150.23226 107.9848 150.36896 107.95744 150.4982 107.91271 C 150.56779 107.89284 150.61501 107.86303 150.63988 107.82323 C 150.66972 107.78843 150.71197 107.76108 150.76664 107.74121 C 150.83623 107.71608 150.91825 107.70121 151.0127 107.69655 C 151.10715 107.68655 151.19165 107.66662 151.26622 107.63682 C 151.33582 107.61202 151.39298 107.57976 151.43772 107.53996 C 151.48245 107.49526 151.53962 107.453 151.60922 107.4132 C 151.68378 107.36352 151.7658 107.31381 151.85528 107.26407 C 151.94973 107.21438 152.0392 107.1597 152.12371 107.10003 C 152.1585 107.07516 152.1933 107.04781 152.2281 107.01801 C 152.26287 106.98821 152.30513 106.95588 152.35486 106.92108 C 152.39961 106.88134 152.44434 106.84908 152.48908 106.82422 C 152.53381 106.79935 152.56116 106.76954 152.5711 106.73474 C 152.57636 106.71981 152.57402 106.68502 152.56409 106.63035 C 152.55909 106.57069 152.53924 106.53589 152.50444 106.52596 C 152.4796 106.51603 152.44232 106.52346 152.39259 106.54833 C 152.34785 106.57319 152.30311 106.5981 152.25837 106.62297 C 152.21363 106.6429 152.17387 106.66275 152.13907 106.68262 C 152.10921 106.70249 152.07441 106.71988 152.03468 106.73481 C 152.00981 106.74475 151.98491 106.74973 151.96004 106.74973 C 151.93517 106.74973 151.91034 106.75471 151.88548 106.76464 C 151.78109 106.79941 151.67173 106.83669 151.55739 106.87649 C 151.44803 106.91629 151.32625 106.94112 151.19203 106.95105 C 151.10752 106.96132 151.02301 106.96883 150.93851 106.9735 C 150.854 106.97876 150.76949 106.98374 150.68499 106.98841 C 150.64025 106.99367 150.60048 106.99133 150.56568 106.9814 C 150.53582 106.97147 150.50593 106.96151 150.47613 106.95157 C 150.45127 106.94164 150.42399 106.93168 150.39419 106.92175 C 150.36933 106.90655 150.33453 106.89666 150.2898 106.892 C 150.23012 106.88673 150.16798 106.88907 150.10338 106.89901 C 150.04375 106.90401 149.9841 106.91144 149.92443 106.92137 C 149.86476 106.92604 149.8076 106.92838 149.75293 106.92838 C 149.69824 106.92838 149.64854 106.92095 149.6038 106.90601 C 149.4845 106.86625 149.38756 106.80162 149.313 106.71215 C 149.24341 106.61769 149.16636 106.52076 149.08185 106.42134 C 149.08185 106.30702 149.07189 106.19765 149.05202 106.09326 C 149.03242 105.9839 149.02499 105.87205 149.02965 105.75772 C 149.03459 105.68814 149.04447 105.62352 149.05941 105.56385 C 149.07927 105.49921 149.09667 105.43458 149.1116 105.36998 C 149.13647 105.2954 149.14896 105.2258 149.14896 105.1612 C 149.15396 105.09161 149.16139 105.02202 149.17133 104.95242 C 149.18126 104.89279 149.19866 104.83313 149.22352 104.77347 C 149.25332 104.70882 149.28068 104.6442 149.30554 104.5796 C 149.33041 104.51995 149.35026 104.45533 149.3652 104.38573 C 149.38013 104.31615 149.39262 104.25153 149.40255 104.19186 C 149.41189 104.1521 149.41423 104.11482 149.40956 104.08002 C 149.40956 104.04022 149.41447 104.00543 149.4244 103.97563 C 149.43433 103.95076 149.44927 103.92341 149.46914 103.89361 C 149.49401 103.85881 149.51638 103.82402 149.53625 103.78922 C 149.60085 103.6898 149.66299 103.59535 149.72266 103.50587 C 149.78231 103.41144 149.85439 103.33439 149.9389 103.27472 C 150.03334 103.21012 150.13525 103.15296 150.24461 103.10322 C 150.35398 103.04853 150.45339 102.99385 150.54287 102.93918 C 150.56773 102.91931 150.58759 102.90192 150.60252 102.88699 C 150.62239 102.86679 150.64476 102.85437 150.66963 102.8497 C 150.71934 102.83944 150.76657 102.8417 150.8113 102.85664 C 150.86102 102.87157 150.90824 102.87908 150.95297 102.87908 C 150.98777 102.87908 151.02256 102.8741 151.05736 102.86417 C 151.09216 102.84897 151.12695 102.83901 151.16175 102.83434 C 151.34568 102.81974 151.52215 102.81484 151.69116 102.8195 C 151.86514 102.82417 152.03913 102.82644 152.21311 102.82644 C 152.26782 102.81151 152.31007 102.78667 152.33987 102.75187 C 152.36971 102.71214 152.41197 102.67981 152.46663 102.65494 C 152.56605 102.61521 152.6779 102.58793 152.80217 102.57299 C 152.93142 102.55806 153.04078 102.52818 153.13026 102.48344 C 153.17997 102.45857 153.2272 102.41881 153.27193 102.36414 C 153.3216 102.30449 153.33156 102.2349 153.30176 102.15536 L 153.30183 102.1564 C 153.16762 102.13154 153.03589 102.13154 152.90664 102.1564 C 152.77739 102.18127 152.64566 102.19866 152.51145 102.2086 C 152.44185 102.21326 152.36729 102.21561 152.28775 102.21561 C 152.20822 102.21561 152.13365 102.21063 152.06406 102.20069 C 152.03426 102.19076 152.00193 102.1808 151.96713 102.17087 C 151.93233 102.15593 151.90007 102.14352 151.87027 102.13359 C 151.8404 102.12425 151.81051 102.12191 151.78071 102.12658 C 151.75091 102.12658 151.72363 102.1216 151.69877 102.11166 C 151.6689 102.10666 151.64399 102.09923 151.62413 102.08929 C 151.60426 102.07409 151.58189 102.06413 151.55702 102.05947 C 151.51227 102.04953 151.46256 102.04953 151.40789 102.05947 C 151.35817 102.0694 151.30597 102.0694 151.25131 102.05947 C 151.22644 102.0542 151.20659 102.04922 151.19165 102.04456 C 151.17672 102.03429 151.15933 102.02685 151.13946 102.02219 C 151.02637 102.00072 150.90568 101.99043 150.77737 101.99132 z M 122.61487 102.08079 L 122.61442 102.08132 C 122.54515 102.10614 122.51289 102.14343 122.51756 102.19316 C 122.52256 102.24286 122.53995 102.29754 122.56975 102.3572 C 122.60455 102.4119 122.64432 102.46658 122.68906 102.52125 C 122.73379 102.57098 122.7636 102.61075 122.77854 102.64055 C 122.8034 102.69024 122.81091 102.73995 122.80098 102.78968 C 122.79631 102.83939 122.79631 102.89904 122.80098 102.96863 C 122.80625 102.9935 122.81115 103.02085 122.81582 103.05065 C 122.82608 103.07552 122.8336 103.10288 122.83826 103.13268 C 122.8482 103.34643 122.82329 103.55521 122.76362 103.75902 C 122.70893 103.95786 122.65425 104.14427 122.59958 104.31825 C 122.57971 104.38786 122.55243 104.45 122.51763 104.50466 C 122.48283 104.55936 122.45548 104.61404 122.43561 104.66871 C 122.43095 104.69357 122.4286 104.7184 122.4286 104.74327 C 122.43327 104.76814 122.43327 104.79051 122.4286 104.81038 C 122.41867 104.85515 122.40626 104.8974 122.39132 104.93714 C 122.37612 104.97691 122.36616 105.01916 122.3615 105.0639 C 122.35623 105.11856 122.35857 105.17573 122.36851 105.2354 C 122.37877 105.29506 122.37643 105.35223 122.3615 105.40689 C 122.35156 105.43669 122.33417 105.46405 122.3093 105.48892 C 122.28443 105.51378 122.26704 105.54114 122.25711 105.57094 C 122.23257 105.65047 122.22261 105.73242 122.22728 105.81692 C 122.23721 105.89646 122.23231 105.97351 122.21244 106.04807 C 122.20251 106.08784 122.18013 106.1252 122.14533 106.16 C 122.11053 106.19476 122.08318 106.23204 122.06331 106.27184 C 122.02351 106.36629 121.9937 106.46564 121.97384 106.57003 C 121.95397 106.67442 121.92661 106.77384 121.89181 106.86828 C 121.85704 106.9677 121.81479 107.05718 121.76505 107.13672 C 121.71535 107.21626 121.67309 107.30076 121.63829 107.39024 C 121.61345 107.43994 121.5712 107.4822 121.51153 107.517 C 121.44693 107.55176 121.38479 107.58904 121.32512 107.62884 C 121.26548 107.66862 121.21825 107.71094 121.18345 107.75568 C 121.14865 107.80538 121.14367 107.86745 121.16854 107.94201 C 121.21826 107.94701 121.27046 107.94211 121.32512 107.92718 C 121.37982 107.91724 121.4345 107.9023 121.48917 107.88244 C 121.53889 107.8625 121.59108 107.84265 121.64575 107.82279 C 121.70042 107.80785 121.75758 107.79536 121.81725 107.78543 C 121.86196 107.7761 121.90421 107.77375 121.94401 107.77842 C 121.98878 107.78775 122.03104 107.7901 122.07077 107.78543 C 122.12542 107.7755 122.17762 107.7581 122.22735 107.73323 C 122.28205 107.71337 122.33673 107.6985 122.3914 107.68857 C 122.50572 107.67397 122.61011 107.67163 122.70457 107.68156 C 122.79901 107.68623 122.90838 107.68857 123.03265 107.68857 C 123.17184 107.68857 123.30605 107.69355 123.4353 107.70348 C 123.56951 107.70842 123.67888 107.67853 123.76338 107.61393 C 123.76338 107.55928 123.75097 107.51206 123.7261 107.47226 C 123.70617 107.43249 123.68126 107.39521 123.65146 107.36041 C 123.6216 107.32064 123.59179 107.28336 123.56199 107.24856 C 123.53712 107.21376 123.51972 107.17399 123.50979 107.12926 C 123.50512 107.11439 123.50278 107.09455 123.50278 107.06968 C 123.50745 107.03982 123.50979 107.01001 123.50979 106.98021 C 123.49986 106.87581 123.50484 106.77639 123.5247 106.68195 C 123.54457 106.58253 123.57192 106.48559 123.60672 106.39115 C 123.61666 106.35138 123.62654 106.3141 123.63648 106.2793 C 123.64641 106.23951 123.65637 106.20471 123.6663 106.17491 C 123.6961 106.11524 123.72346 106.07049 123.74832 106.04069 C 123.77812 106.00589 123.81038 105.98099 123.84518 105.96605 C 123.87995 105.94585 123.92221 105.93344 123.97194 105.92877 C 124.02165 105.9235 124.0813 105.91853 124.1509 105.91386 C 124.24038 105.90393 124.32488 105.90393 124.40442 105.91386 C 124.48395 105.91853 124.56348 105.91853 124.64302 105.91386 C 124.70762 105.90886 124.76479 105.89644 124.81452 105.87658 C 124.86921 105.85144 124.91892 105.8365 124.96365 105.83184 C 125.00842 105.83184 125.0457 105.83682 125.0755 105.84675 C 125.1053 105.85608 125.13763 105.85843 125.17243 105.85376 C 125.20223 105.84883 125.23449 105.83887 125.26929 105.82393 C 125.30405 105.80407 125.34134 105.7892 125.38114 105.77927 C 125.4905 105.73948 125.59986 105.70468 125.70922 105.67488 C 125.81858 105.64502 125.92794 105.61022 126.0373 105.57049 C 126.0671 105.56056 126.08948 105.54569 126.10441 105.52582 C 126.11935 105.50096 126.1467 105.47858 126.18643 105.45872 C 126.22621 105.43878 126.26846 105.41886 126.31319 105.39899 C 126.35796 105.37412 126.39524 105.35175 126.42504 105.33188 C 126.44991 105.31195 126.47228 105.28712 126.49215 105.25732 C 126.51208 105.22752 126.53691 105.20016 126.56671 105.1753 C 126.64627 105.11566 126.71337 105.05601 126.76804 104.99634 C 126.8277 104.93172 126.88487 104.86461 126.93954 104.79502 C 126.98922 104.72045 127.03893 104.63346 127.08866 104.53404 C 127.13837 104.43462 127.18062 104.33023 127.21542 104.22087 C 127.25022 104.10654 127.2726 103.98972 127.28253 103.87042 C 127.29247 103.74614 127.28251 103.62436 127.25271 103.50505 C 127.22291 103.40066 127.19065 103.31119 127.15585 103.23662 C 127.12103 103.1571 127.0763 103.0875 127.02163 103.02784 C 126.97192 102.96821 126.90979 102.91353 126.83522 102.8638 C 126.76066 102.81411 126.67366 102.7644 126.57424 102.71467 C 126.51958 102.61031 126.46241 102.53823 126.40275 102.49843 C 126.34807 102.45368 126.26108 102.40895 126.14177 102.36421 C 126.09706 102.34428 126.04983 102.32435 126.0001 102.30449 C 125.95538 102.27969 125.90816 102.25984 125.85842 102.24491 C 125.72918 102.20978 125.59994 102.18985 125.47069 102.18518 C 125.34144 102.17992 125.20971 102.18226 125.0755 102.19219 C 124.94625 102.19713 124.81701 102.20709 124.68776 102.22202 C 124.55852 102.23695 124.42679 102.24439 124.29257 102.24439 C 123.98437 102.25465 123.69605 102.25231 123.42762 102.23738 C 123.16416 102.22247 122.89324 102.17027 122.61487 102.08079 z M 148.88634 102.09399 C 148.71236 102.09399 148.5334 102.10395 148.34948 102.12382 C 148.17052 102.14375 147.98908 102.16858 147.80516 102.19838 C 147.6262 102.22325 147.44724 102.24808 147.26829 102.27295 C 147.08934 102.29781 146.91535 102.3103 146.74634 102.3103 C 146.68669 102.2907 146.63947 102.28319 146.60467 102.28786 C 146.57487 102.28786 146.54253 102.29284 146.50773 102.30277 C 146.47791 102.30804 146.44062 102.31302 146.39589 102.31768 C 146.35611 102.32295 146.30144 102.32061 146.23184 102.31068 C 146.19705 102.30574 146.16225 102.29578 146.12745 102.28085 C 146.09766 102.26592 146.06286 102.2535 146.02306 102.24357 C 145.92364 102.22863 145.83168 102.21622 145.74717 102.20629 C 145.66764 102.19695 145.58313 102.19461 145.49366 102.19928 C 145.46878 102.35338 145.42902 102.48262 145.37435 102.58701 C 145.32465 102.68643 145.26251 102.80574 145.18794 102.94492 C 145.17301 102.96979 145.15071 102.99469 145.12091 103.01956 C 145.09604 103.03943 145.06869 103.06173 145.03889 103.08659 C 145.00902 103.11146 144.97913 103.13637 144.94933 103.16123 C 144.92447 103.1861 144.90707 103.20848 144.89714 103.22834 C 144.84247 103.35759 144.78531 103.48683 144.72564 103.61608 C 144.66597 103.74035 144.60383 103.86463 144.53923 103.9889 C 144.47958 104.11815 144.4075 104.24739 144.32299 104.37664 C 144.24345 104.50091 144.17633 104.62021 144.12167 104.73455 C 144.1018 104.75941 144.0795 104.78424 144.05463 104.80911 C 144.03477 104.82898 144.01983 104.85135 144.0099 104.87622 C 143.98503 104.93088 143.9651 104.98805 143.95017 105.04772 C 143.94024 105.10734 143.91042 105.15705 143.86069 105.19685 C 143.81069 105.12725 143.78334 105.0502 143.77867 104.9657 C 143.77867 104.88119 143.77377 104.79917 143.76383 104.71963 C 143.75883 104.6401 143.73891 104.56553 143.70411 104.49594 C 143.67457 104.42137 143.66216 104.3493 143.66682 104.2797 C 143.67182 104.22505 143.65191 104.17285 143.60717 104.12312 C 143.56711 104.06845 143.54473 104.01128 143.54006 103.95162 C 143.52513 103.8522 143.50283 103.74781 143.47303 103.63845 C 143.45843 103.5987 143.45345 103.55396 143.45812 103.50423 C 143.46338 103.44954 143.46104 103.39486 143.45111 103.34019 C 143.43618 103.24077 143.43618 103.11898 143.45111 102.97482 C 143.46604 102.8257 143.47846 102.69148 143.48839 102.57217 C 143.49832 102.52747 143.52323 102.48521 143.56303 102.44541 C 143.60776 102.40067 143.62263 102.35095 143.60769 102.29628 C 143.59775 102.25122 143.5555 102.22639 143.48093 102.22172 C 143.41134 102.21179 143.32932 102.21179 143.23487 102.22172 C 143.14539 102.23165 143.05095 102.24407 142.95153 102.259 C 142.85706 102.2742 142.77752 102.28416 142.71292 102.28883 C 142.63835 102.29816 142.54887 102.3005 142.44449 102.29584 C 142.34507 102.29117 142.26056 102.29117 142.19097 102.29584 C 142.1164 102.3011 142.06173 102.30601 142.02693 102.31068 L 141.85543 102.31068 C 141.82062 102.30568 141.78086 102.29824 141.73612 102.28831 C 141.69138 102.27804 141.64664 102.2706 141.60191 102.26594 C 141.56214 102.2566 141.52486 102.25426 141.49006 102.25893 C 141.45526 102.26359 141.42545 102.26359 141.40058 102.25893 C 141.38568 102.25393 141.3484 102.24151 141.28874 102.22165 C 141.23408 102.19685 141.1769 102.17693 141.11724 102.16199 C 141.0576 102.14739 141.00293 102.14505 140.9532 102.15499 C 140.90846 102.15992 140.88609 102.19225 140.88609 102.25192 C 140.89102 102.27679 140.90589 102.29671 140.93075 102.31165 C 140.96055 102.32658 140.98791 102.35141 141.01277 102.38621 C 141.05784 102.45082 141.08275 102.51295 141.08741 102.57262 C 141.09768 102.63227 141.09534 102.6969 141.0804 102.76649 C 141.06554 102.83112 141.04562 102.90319 141.02075 102.98273 C 141.00089 103.05729 140.98349 103.1418 140.96856 103.23625 C 140.94869 103.33567 140.93881 103.4326 140.93881 103.52705 C 140.93881 103.61653 140.91888 103.70352 140.87908 103.78802 C 140.87627 103.79506 140.87279 103.80209 140.86879 103.80913 C 140.78782 103.82458 140.70684 103.84002 140.62586 103.85543 C 140.52147 103.87036 140.42205 103.8778 140.3276 103.8778 C 140.2928 103.8778 140.26054 103.87282 140.23074 103.86289 C 140.20094 103.84795 140.16861 103.84052 140.13381 103.84052 C 140.06421 103.84552 140.00704 103.85793 139.96231 103.8778 C 139.91757 103.89273 139.8778 103.91511 139.843 103.94491 C 139.8132 103.97474 139.78585 104.01202 139.76098 104.05675 C 139.73612 104.09653 139.70884 104.14376 139.67904 104.19843 C 139.63926 104.26307 139.59701 104.32271 139.55228 104.37738 C 139.50755 104.43208 139.47275 104.49174 139.44789 104.55634 C 139.42302 104.61102 139.40563 104.68309 139.39569 104.77257 C 139.38576 104.85705 139.36338 104.92416 139.32858 104.9739 C 139.31865 104.99376 139.30126 105.01116 139.27639 105.02609 C 139.25152 105.03603 139.2316 105.04844 139.21666 105.06338 C 139.15703 105.11806 139.09737 105.18517 139.03771 105.2647 C 138.98304 105.34424 138.92588 105.42875 138.86621 105.51822 C 138.81152 105.60273 138.75683 105.68723 138.70217 105.77174 C 138.65248 105.85627 138.60277 105.93083 138.55304 105.99543 C 138.5279 105.99543 138.51304 106.00294 138.50837 106.01788 C 138.50344 106.03281 138.48352 106.04025 138.44872 106.04025 C 138.42359 106.01538 138.40872 105.98557 138.40406 105.95077 C 138.39906 105.91103 138.39155 105.87126 138.38161 105.83146 C 138.37661 105.79167 138.3642 105.75687 138.34433 105.72707 C 138.3294 105.69727 138.29959 105.67743 138.25485 105.6675 C 138.27939 105.56806 138.28173 105.49101 138.26186 105.43635 C 138.242 105.38166 138.21211 105.33188 138.17231 105.28714 C 138.18224 105.26228 138.19718 105.24243 138.21705 105.22749 C 138.23692 105.21256 138.25178 105.19018 138.26171 105.16038 C 138.22691 105.11066 138.20454 105.05349 138.19461 104.98889 C 138.18961 104.92425 138.17221 104.8646 138.14241 104.80993 C 138.13248 104.79006 138.11761 104.77267 138.09775 104.75774 C 138.07788 104.7428 138.06294 104.72288 138.05301 104.69801 C 138.03281 104.65328 138.02039 104.58865 138.01573 104.50414 C 138.01573 104.41963 138.01807 104.33513 138.02274 104.25062 C 138.0274 104.16114 138.02974 104.08161 138.02974 104.01202 C 138.03441 103.93746 138.03441 103.88775 138.02974 103.86289 L 138.03206 103.86259 C 138.02706 103.84239 138.00966 103.8299 137.97986 103.82523 C 137.95499 103.82056 137.92771 103.82056 137.89791 103.82523 L 137.80836 103.82523 C 137.77823 103.8203 137.76083 103.80543 137.75617 103.78057 C 137.67166 103.77557 137.58467 103.76806 137.49519 103.75812 C 137.41068 103.74819 137.32618 103.74819 137.24167 103.75812 C 137.19696 103.76279 137.14973 103.76279 137.1 103.75812 C 137.05529 103.74786 137.00806 103.74042 136.95833 103.73575 C 136.90861 103.72582 136.86139 103.72084 136.81665 103.72084 C 136.77192 103.72084 136.73215 103.72835 136.69735 103.74328 C 136.68242 103.77308 136.66502 103.79293 136.64516 103.80286 C 136.63029 103.81279 136.61542 103.82275 136.60049 103.83269 C 136.58562 103.83762 136.57069 103.84751 136.55575 103.86244 C 136.54582 103.87244 136.54084 103.89236 136.54084 103.92216 C 136.54084 103.94703 136.55578 103.97186 136.58558 103.99673 C 136.62038 104.01666 136.66015 104.04157 136.70488 104.07137 C 136.74959 104.09624 136.79682 104.12605 136.84655 104.16085 C 136.89629 104.19565 136.93606 104.23542 136.96586 104.28015 C 136.97079 104.3398 136.98565 104.40691 137.01052 104.48147 C 137.04039 104.55107 137.07027 104.62315 137.10007 104.69771 C 137.13487 104.77228 137.16468 104.84684 137.18955 104.9214 C 137.21935 104.99098 137.23421 105.05561 137.23421 105.11527 C 137.25408 105.16992 137.27646 105.21714 137.30132 105.25694 C 137.33112 105.29175 137.3535 105.33649 137.36843 105.39116 C 137.3933 105.47567 137.4182 105.57757 137.44307 105.69688 C 137.453 105.75157 137.453 105.80625 137.44307 105.86092 C 137.4384 105.9156 137.4384 105.97774 137.44307 106.04733 C 137.448 106.09707 137.45789 106.13683 137.47282 106.16663 C 137.49269 106.19143 137.51506 106.22377 137.53993 106.26357 C 137.55986 106.31825 137.57979 106.39281 137.59966 106.48726 C 137.62452 106.58171 137.64192 106.66622 137.65185 106.74078 C 137.66178 106.77559 137.67174 106.82033 137.68168 106.875 C 137.69161 106.9247 137.69161 106.96198 137.68168 106.98684 C 137.67641 107.00671 137.67875 107.02655 137.68869 107.04642 L 137.73335 107.09116 C 137.74828 107.10609 137.7607 107.12349 137.77063 107.14335 C 137.78523 107.15822 137.78757 107.17308 137.77764 107.18802 C 137.75277 107.22782 137.72794 107.25763 137.70308 107.27749 C 137.68314 107.29743 137.66322 107.32233 137.64335 107.35213 C 137.60855 107.40679 137.57622 107.45899 137.54642 107.50872 C 137.52155 107.55839 137.49427 107.60314 137.46447 107.64294 C 137.39488 107.7573 137.31783 107.84677 137.23332 107.91137 C 137.14881 107.98096 137.05934 108.05801 136.96489 108.14252 C 136.91517 108.18725 136.86297 108.21706 136.8083 108.232 C 136.75862 108.24693 136.70891 108.25942 136.65917 108.26935 C 136.61443 108.28429 136.56969 108.30168 136.52496 108.32155 C 136.48022 108.34639 136.44045 108.38864 136.40565 108.44831 C 136.31617 108.49305 136.23664 108.55767 136.16705 108.64218 C 136.15185 108.65211 136.14189 108.67448 136.13722 108.70928 C 136.12729 108.74408 136.11487 108.76638 136.09994 108.77632 C 135.99057 108.76145 135.89613 108.76896 135.81659 108.79876 C 135.73209 108.82863 135.64261 108.85346 135.54816 108.87333 C 135.49348 108.88326 135.44875 108.89575 135.41395 108.91068 C 135.37915 108.92555 135.34435 108.94041 135.30955 108.95535 C 135.27479 108.97521 135.23751 108.99261 135.19771 109.00754 C 135.15792 109.02247 135.10572 109.03489 135.04112 109.04482 C 134.99637 109.02989 134.94666 109.02245 134.89199 109.02245 C 134.83235 109.02745 134.7901 109.04738 134.76523 109.08218 C 134.7503 109.13688 134.75528 109.17416 134.78015 109.19403 C 134.80528 109.21396 134.82014 109.24377 134.82481 109.2835 C 134.93914 109.32827 135.07088 109.36555 135.22 109.39535 C 135.36416 109.42515 135.51577 109.43511 135.67485 109.42518 C 135.74446 109.42018 135.81157 109.40278 135.87617 109.37298 C 135.9408 109.34318 136.0079 109.32081 136.0775 109.30587 C 136.14209 109.29094 136.19926 109.27845 136.24899 109.26852 C 136.29872 109.26358 136.35091 109.2537 136.40558 109.23877 C 136.53483 109.20397 136.64667 109.16918 136.74112 109.13438 C 136.83557 109.10458 136.9325 109.07224 137.03192 109.03744 C 137.07171 108.97282 137.12391 108.92311 137.18851 108.88831 C 137.25314 108.85847 137.3128 108.81622 137.36746 108.76155 C 137.41714 108.71683 137.46188 108.66463 137.50168 108.60497 C 137.54141 108.55027 137.58118 108.49559 137.62098 108.44093 C 137.64585 108.41113 137.6732 108.38875 137.703 108.37382 C 137.7378 108.36388 137.77006 108.354 137.79986 108.34407 C 137.83466 108.33913 137.867 108.32917 137.8968 108.31424 C 137.9316 108.30431 137.96385 108.28446 137.99365 108.25466 C 138.03842 108.20001 138.0757 108.14781 138.1055 108.09808 C 138.14029 108.04836 138.17509 108.00114 138.20989 107.95641 C 138.2447 107.91667 138.28446 107.8769 138.3292 107.8371 C 138.3789 107.8023 138.43856 107.77242 138.50815 107.74755 C 138.60757 107.63819 138.69456 107.52137 138.76913 107.3971 C 138.84866 107.27282 138.92571 107.14358 139.00028 107.00936 C 139.03508 106.94973 139.07983 106.89007 139.13449 106.83041 C 139.18949 106.77075 139.21938 106.69868 139.22404 106.61417 C 139.34336 106.5744 139.43035 106.50729 139.48502 106.41284 C 139.54467 106.31342 139.60929 106.20903 139.67889 106.09967 C 139.72363 106.03008 139.76339 105.96056 139.79819 105.89097 C 139.83796 105.81641 139.88022 105.74923 139.92495 105.68957 C 140.00946 105.57524 140.09645 105.47333 140.18593 105.38385 C 140.26471 105.30922 140.33479 105.23112 140.39627 105.14957 C 140.39283 105.16316 140.38976 105.17663 140.3871 105.18991 C 140.37224 105.2446 140.3573 105.29431 140.34236 105.33904 C 140.3321 105.37877 140.32466 105.41854 140.31999 105.45834 C 140.31006 105.49812 140.31006 105.54037 140.31999 105.5851 C 140.32933 105.62988 140.33167 105.67213 140.327 105.71186 C 140.32207 105.81128 140.2997 105.89579 140.2599 105.96538 C 140.22014 106.03001 140.18285 106.0996 140.14805 106.17416 C 140.12318 106.22884 140.1182 106.29346 140.13314 106.36803 C 140.153 106.43759 140.153 106.49227 140.13314 106.53207 C 140.1182 106.55694 140.09828 106.58177 140.07341 106.60664 C 140.04854 106.62657 140.02869 106.65148 140.01376 106.68128 C 139.98389 106.72602 139.95899 106.78318 139.93912 106.85278 C 139.91925 106.92237 139.91427 106.99445 139.92421 107.06901 C 139.93414 107.13861 139.95161 107.17838 139.97648 107.18832 C 140.00131 107.19325 140.03859 107.21562 140.08832 107.25542 C 140.13806 107.29018 140.17783 107.32747 140.20763 107.36727 C 140.23743 107.40207 140.26471 107.43188 140.28957 107.45675 C 140.31444 107.47661 140.34179 107.48657 140.37159 107.48657 C 140.40641 107.48657 140.45612 107.46665 140.52072 107.42685 C 140.52072 107.46662 140.51574 107.50887 140.50581 107.55361 C 140.49588 107.59341 140.49588 107.63318 140.50581 107.67291 C 140.52569 107.73258 140.58037 107.78974 140.66985 107.84441 C 140.7643 107.89908 140.85875 107.92145 140.9532 107.91152 C 141.00787 107.90652 141.04763 107.88912 141.0725 107.85932 C 141.1023 107.83446 141.12214 107.80212 141.13208 107.76239 C 141.14728 107.72758 141.15724 107.68782 141.1619 107.64308 C 141.1669 107.59337 141.17441 107.54615 141.18435 107.50141 C 141.21414 107.38708 141.24894 107.2628 141.28874 107.12859 C 141.3288 106.99437 141.3511 106.87507 141.35577 106.77068 C 141.3707 106.71597 141.40549 106.67372 141.46016 106.64392 C 141.5198 106.61412 141.56205 106.57435 141.58692 106.52462 C 141.60679 106.48482 141.61675 106.43263 141.61675 106.36803 C 141.61675 106.30338 141.62173 106.23876 141.63166 106.17416 C 141.65653 106.08469 141.6789 105.98527 141.69877 105.87591 C 141.72357 105.76158 141.75583 105.64973 141.79563 105.54036 C 141.84036 105.42603 141.87025 105.31667 141.88518 105.21228 C 141.90011 105.10292 141.91996 104.99853 141.94483 104.89911 C 141.9697 104.8146 141.99958 104.7301 142.03438 104.64559 C 142.06885 104.55611 142.08371 104.4716 142.07905 104.39207 C 142.07905 104.36227 142.07161 104.33499 142.05668 104.31012 C 142.04734 104.28526 142.045 104.26288 142.04967 104.24302 C 142.0546 104.20322 142.06947 104.16843 142.09433 104.13863 C 142.1192 104.10883 142.13912 104.08147 142.15406 104.0566 C 142.16399 104.0268 142.17641 103.98703 142.19134 103.9373 C 142.20627 103.88761 142.22367 103.83791 142.24354 103.78817 C 142.2634 103.73847 142.28325 103.69621 142.30311 103.66141 C 142.32298 103.62661 142.34535 103.60424 142.37022 103.5943 C 142.37022 103.69372 142.38271 103.79563 142.40758 103.90002 C 142.43738 104.00441 142.46964 104.1088 142.50444 104.21319 C 142.5442 104.31758 142.58148 104.42197 142.61628 104.52636 C 142.65108 104.63075 142.67346 104.72768 142.68339 104.81716 C 142.68806 104.85694 142.6904 104.89919 142.6904 104.94392 C 142.69567 104.98366 142.70065 105.02841 142.70531 105.07814 C 142.71525 105.16762 142.74008 105.26206 142.77988 105.36148 C 142.82461 105.4609 142.8594 105.5479 142.88427 105.62246 C 142.90914 105.72685 142.93649 105.83124 142.96629 105.93563 C 143.00109 106.04002 143.02592 106.13447 143.04085 106.21898 C 143.04552 106.26372 143.04552 106.30846 143.04085 106.35319 C 143.04085 106.39793 143.04583 106.4377 143.05577 106.4725 C 143.0657 106.49736 143.0831 106.52227 143.10796 106.54714 C 143.13783 106.56707 143.15776 106.5919 143.16769 106.6217 C 143.18756 106.68632 143.18756 106.7584 143.16769 106.83794 C 143.14782 106.9125 143.14782 106.99204 143.16769 107.07654 C 143.17762 107.14614 143.20245 107.21573 143.24225 107.28532 C 143.28232 107.34996 143.30469 107.40961 143.30936 107.46428 C 143.31463 107.49408 143.31229 107.52641 143.30235 107.56121 C 143.29242 107.59101 143.28751 107.62327 143.28751 107.65807 C 143.30243 107.78731 143.35462 107.91656 143.4441 108.04581 C 143.48881 108.05574 143.53604 108.07068 143.58577 108.09055 C 143.63549 108.11541 143.68271 108.12285 143.72744 108.11292 C 143.76224 108.10295 143.78708 108.06567 143.80201 108.00107 C 143.82194 107.93642 143.84685 107.88422 143.87665 107.84448 C 143.9512 107.75998 144.01831 107.66801 144.07797 107.56859 C 144.13263 107.46917 144.18482 107.37473 144.23456 107.28525 C 144.28921 107.1908 144.33643 107.09387 144.37623 106.99445 C 144.4011 106.95465 144.41849 106.91986 144.42843 106.89006 C 144.44329 106.85529 144.45816 106.81801 144.47309 106.77821 C 144.53274 106.63406 144.60979 106.48741 144.70424 106.33828 C 144.79866 106.18915 144.86576 106.03754 144.90556 105.88344 C 144.95526 105.80887 144.99254 105.73679 145.01741 105.6672 C 145.04228 105.59261 145.06718 105.52302 145.09205 105.45842 C 145.11692 105.39378 145.14673 105.33413 145.18153 105.27946 C 145.2213 105.2198 145.27847 105.16761 145.35303 105.12288 C 145.39777 105.04334 145.45493 104.94889 145.52452 104.83953 C 145.59909 104.7252 145.67614 104.6059 145.75567 104.48162 C 145.84018 104.35238 145.92469 104.22811 146.00919 104.1088 C 146.09867 103.98453 146.17821 103.87516 146.2478 103.78072 C 146.32234 103.68131 146.38448 103.60178 146.43421 103.54211 C 146.48891 103.48244 146.52619 103.45263 146.54606 103.45263 C 146.55599 103.53714 146.54856 103.63159 146.52369 103.73598 C 146.50382 103.84037 146.48888 103.93482 146.47895 104.01932 C 146.45902 104.15851 146.43917 104.30011 146.4193 104.44427 C 146.39937 104.58843 146.36948 104.7252 146.32975 104.85445 C 146.30988 104.90416 146.28751 104.95131 146.26264 104.99604 C 146.23777 105.04079 146.21547 105.0856 146.19561 105.13033 C 146.18067 105.1751 146.16818 105.21238 146.15825 105.24218 C 146.15298 105.26705 146.148 105.29188 146.14334 105.31675 C 146.14334 105.34161 146.14107 105.37142 146.1364 105.40622 C 146.1364 105.43606 146.13142 105.47832 146.12149 105.53298 C 146.11156 105.59759 146.09416 105.65973 146.06929 105.71939 C 146.04416 105.77903 146.02922 105.83868 146.02455 105.89835 C 146.01522 105.95798 146.01288 106.01266 146.01755 106.06239 C 146.02221 106.1121 146.02221 106.15933 146.01755 106.20406 C 146.01755 106.24382 146.01011 106.28111 145.99518 106.31591 C 145.98024 106.35071 145.95043 106.38304 145.9057 106.41284 C 145.85603 106.54209 145.8237 106.66637 145.80876 106.78567 C 145.79384 106.90497 145.75904 107.02925 145.70437 107.15849 C 145.66961 107.23308 145.63233 107.30267 145.59253 107.36727 C 145.55773 107.4319 145.5329 107.50646 145.51796 107.59096 C 145.5077 107.65062 145.50019 107.71773 145.49552 107.79229 C 145.49552 107.86684 145.49786 107.93395 145.50253 107.99361 C 145.57209 108.02348 145.62677 108.03092 145.66657 108.01598 C 145.71131 108.00605 145.75107 107.98367 145.78587 107.94887 C 145.82067 107.91901 145.85301 107.88422 145.88281 107.84448 C 145.91264 107.80968 145.94992 107.7824 145.99465 107.76254 C 146.03941 107.74767 146.08912 107.73273 146.14378 107.7178 C 146.20342 107.70787 146.26307 107.69545 146.32274 107.68052 C 146.3824 107.66558 146.43957 107.64819 146.49424 107.62832 C 146.54894 107.60845 146.5912 107.5811 146.621 107.5463 C 146.65086 107.51151 146.67071 107.47671 146.68065 107.44191 C 146.69058 107.40214 146.70552 107.35988 146.72539 107.31515 C 146.75525 107.23064 146.77511 107.15111 146.78504 107.07654 C 146.79997 106.99701 146.8199 106.9125 146.84476 106.82302 C 146.88454 106.69875 146.92679 106.57199 146.97152 106.44274 C 147.01625 106.30853 147.05105 106.16934 147.07591 106.02518 C 147.08525 105.97053 147.08759 105.91833 147.08292 105.8686 C 147.08292 105.8139 147.0879 105.75922 147.09784 105.70456 C 147.11277 105.60514 147.1376 105.50572 147.1724 105.4063 C 147.21216 105.3019 147.24945 105.2 147.28425 105.10058 C 147.29451 105.06082 147.30203 105.02354 147.30669 104.98874 C 147.31169 104.949 147.31913 104.90923 147.32906 104.86943 C 147.33899 104.83963 147.34895 104.81228 147.35889 104.78741 C 147.37409 104.76255 147.38397 104.73527 147.38864 104.70547 C 147.39857 104.61102 147.40853 104.52154 147.41846 104.43703 C 147.43333 104.35253 147.46069 104.27548 147.50049 104.20588 C 147.51535 104.17608 147.5352 104.14873 147.56006 104.12386 C 147.58493 104.09906 147.60486 104.06673 147.61979 104.02693 C 147.63939 103.97724 147.64682 103.92753 147.64216 103.8778 C 147.63689 103.82808 147.63923 103.77588 147.64917 103.72121 L 147.67899 103.64665 C 147.68893 103.61685 147.69881 103.58949 147.70874 103.56463 C 147.72868 103.48509 147.7486 103.40804 147.76847 103.33348 C 147.78834 103.25392 147.81569 103.18184 147.85049 103.11724 C 147.87536 103.06754 147.90517 103.03026 147.93997 103.00539 C 147.97976 102.98053 148.01456 102.94574 148.04436 102.901 C 148.09905 102.8115 148.15373 102.73445 148.2084 102.66985 C 148.26805 102.60025 148.33268 102.54309 148.40227 102.49835 C 148.47186 102.44865 148.54891 102.4064 148.63342 102.3716 C 148.7229 102.3318 148.8248 102.297 148.93913 102.2672 C 148.93913 102.21254 148.92174 102.15537 148.88694 102.09571 L 148.88634 102.09399 z M 124.91802 102.72846 C 124.98542 102.72794 125.04521 102.74071 125.09742 102.76679 C 125.16202 102.79165 125.21918 102.80905 125.26892 102.81898 C 125.31363 102.86866 125.36086 102.9134 125.41059 102.9532 C 125.4603 102.99295 125.50753 103.03768 125.55226 103.08741 C 125.59703 103.13214 125.63431 103.18433 125.66411 103.244 C 125.69891 103.29868 125.72128 103.36827 125.73122 103.45278 C 125.75635 103.61185 125.75401 103.75601 125.72421 103.88526 C 125.69436 104.00953 125.64714 104.14374 125.58254 104.2879 C 125.5726 104.31277 125.55774 104.33768 125.53787 104.36254 C 125.52294 104.38241 125.51052 104.40471 125.50059 104.42958 C 125.47572 104.49916 125.45082 104.56378 125.42595 104.62344 C 125.4011 104.68308 125.35139 104.72534 125.27682 104.7502 C 125.24695 104.79992 125.22212 104.85212 125.20226 104.90679 C 125.18732 104.96144 125.15997 105.00874 125.12024 105.04854 C 125.04566 105.04854 124.98601 105.07084 124.94128 105.11557 C 124.89652 105.16033 124.84184 105.19762 124.77724 105.22742 L 124.77687 105.22734 C 124.65259 105.28701 124.50595 105.31682 124.33693 105.31682 C 124.16792 105.31682 124.02376 105.29698 123.90446 105.25724 C 123.86939 105.15285 123.87174 105.05095 123.91147 104.95153 C 123.95126 104.85211 123.98606 104.74772 124.01586 104.63836 C 124.04073 104.56876 124.05812 104.49669 124.06805 104.42212 C 124.08299 104.34753 124.10038 104.27794 124.12025 104.21334 C 124.13018 104.18354 124.14014 104.15619 124.15008 104.13132 C 124.16528 104.10152 124.17516 104.06918 124.17983 104.03438 C 124.18483 104.00452 124.17992 103.97471 124.16499 103.94491 C 124.15566 103.91011 124.15331 103.87785 124.15798 103.84805 C 124.16791 103.82318 124.18278 103.79828 124.20264 103.77341 C 124.22751 103.74854 124.24491 103.72119 124.25484 103.69139 C 124.32444 103.5522 124.3816 103.40058 124.42634 103.23654 C 124.47108 103.06753 124.52824 102.9184 124.59784 102.78916 C 124.64755 102.77922 124.69478 102.76681 124.73951 102.75187 C 124.7892 102.73694 124.8389 102.7295 124.88864 102.7295 C 124.89858 102.72889 124.90839 102.72854 124.91802 102.72846 z M 129.19183 103.61503 C 129.1597 103.61512 129.1273 103.61589 129.09467 103.61735 C 128.99028 103.61735 128.89335 103.62232 128.80387 103.63226 C 128.70943 103.64219 128.61995 103.66702 128.53544 103.70682 C 128.45591 103.74162 128.37388 103.76898 128.28938 103.78884 C 128.1999 103.81371 128.12036 103.83608 128.05077 103.85595 C 127.98614 103.87582 127.92648 103.90815 127.87182 103.95289 C 127.82212 103.99267 127.78484 104.03982 127.75997 104.09448 C 127.7401 104.14918 127.71022 104.20386 127.67042 104.25853 C 127.63561 104.29827 127.59094 104.3381 127.53628 104.3779 C 127.48162 104.41266 127.42935 104.44988 127.37962 104.48968 C 127.3349 104.52942 127.28768 104.56925 127.23794 104.60905 C 127.1882 104.64383 127.14346 104.68608 127.10373 104.73581 C 127.08386 104.76068 127.069 104.78551 127.05906 104.81038 C 127.04913 104.83524 127.03419 104.85762 127.01432 104.87749 C 126.9646 104.93711 126.91248 104.99179 126.85781 105.04153 C 126.80311 105.09124 126.76583 105.15835 126.74597 105.24285 C 126.72603 105.31245 126.70113 105.38453 126.67133 105.45909 C 126.64646 105.53366 126.62163 105.61071 126.59676 105.69024 C 126.57683 105.76978 126.5569 105.8518 126.53704 105.9363 C 126.52244 106.01584 126.51746 106.10035 126.52212 106.18982 C 126.52712 106.27433 126.53954 106.37871 126.55941 106.50299 C 126.57927 106.62231 126.60663 106.7093 126.64143 106.76397 C 126.65136 106.78884 126.66876 106.81121 126.69362 106.83108 C 126.72342 106.84601 126.7458 106.86586 126.76073 106.89073 C 126.81044 106.96032 126.85269 107.03986 126.88749 107.12934 C 126.92229 107.2188 126.98194 107.27597 127.06644 107.30083 C 127.0913 107.38533 127.13852 107.44499 127.20812 107.47979 C 127.27771 107.50958 127.3473 107.54438 127.4169 107.58418 C 127.4815 107.60904 127.54364 107.64384 127.60331 107.68857 C 127.66299 107.7333 127.72512 107.76809 127.78972 107.79296 C 127.80959 107.80323 127.83196 107.81074 127.85683 107.8154 C 127.8817 107.8204 127.90653 107.82784 127.93139 107.83777 C 127.95626 107.84771 127.97863 107.86012 127.9985 107.87506 C 128.01843 107.89026 128.03836 107.90021 128.05823 107.90488 C 128.1825 107.93441 128.31672 107.93676 128.46088 107.91189 C 128.61 107.88702 128.73428 107.86219 128.8337 107.83733 C 128.87343 107.82739 128.9132 107.81743 128.953 107.8075 C 128.99777 107.8025 129.03505 107.79499 129.06485 107.78506 C 129.11953 107.77012 129.16427 107.74529 129.19907 107.71049 C 129.23384 107.67069 129.27609 107.64088 129.32582 107.62101 C 129.36558 107.61108 129.40287 107.6061 129.43767 107.6061 C 129.47744 107.6011 129.51472 107.59359 129.54952 107.58366 C 129.64396 107.54886 129.74587 107.4917 129.85523 107.41216 C 129.96959 107.33263 130.05907 107.25557 130.12367 107.18101 C 130.13887 107.16608 130.14882 107.14868 130.15349 107.12881 C 130.16342 107.10895 130.17331 107.09155 130.18324 107.07662 C 130.223 107.03191 130.26029 106.98966 130.29509 106.94986 C 130.32988 106.91007 130.36468 106.85787 130.39948 106.79327 C 130.45413 106.67894 130.50135 106.57207 130.54115 106.47265 C 130.58093 106.37323 130.62318 106.2564 130.66791 106.12219 C 130.69778 106.04763 130.72268 105.96809 130.74255 105.88359 C 130.76275 105.79411 130.77517 105.7096 130.77983 105.63007 C 130.7901 105.51573 130.78776 105.42128 130.77282 105.34672 C 130.76289 105.26718 130.75301 105.17771 130.74307 105.07829 C 130.72814 104.93413 130.70821 104.8198 130.68335 104.73529 C 130.65851 104.65078 130.62123 104.55882 130.5715 104.4594 L 130.57105 104.45948 C 130.48657 104.38491 130.41448 104.30786 130.35482 104.22833 C 130.30014 104.14382 130.23303 104.0618 130.15349 103.98226 C 130.11872 103.9475 130.08144 103.91022 130.04164 103.87042 C 130.00685 103.83062 129.97205 103.80081 129.93725 103.78094 C 129.86766 103.73621 129.78564 103.70142 129.69119 103.67655 C 129.60172 103.65168 129.50478 103.63429 129.40039 103.62435 C 129.33204 103.61794 129.26253 103.61483 129.19183 103.61503 z M 131.64598 103.6418 C 131.56297 103.64207 131.49813 103.66352 131.45151 103.70623 C 131.3968 103.76091 131.35455 103.83547 131.32475 103.92992 C 131.29988 104.0194 131.28249 104.12131 131.27256 104.23563 C 131.26262 104.34997 131.24776 104.45932 131.22789 104.56372 C 131.21296 104.6482 131.18805 104.72029 131.15325 104.77996 C 131.12339 104.8396 131.09358 104.89924 131.06378 104.95891 C 131.03891 105.01359 131.01653 105.07573 130.99667 105.14532 C 130.98173 105.21491 130.98173 105.3019 130.99667 105.4063 C 131.00167 105.4361 130.99669 105.48085 130.98175 105.54051 C 130.96682 105.59519 130.95938 105.63495 130.95938 105.65982 C 130.95938 105.70455 130.95195 105.74432 130.93702 105.77912 C 130.92208 105.81392 130.90216 105.84625 130.87729 105.87605 C 130.85736 105.90092 130.83743 105.92828 130.81756 105.95808 C 130.7977 105.98294 130.78283 106.01022 130.7729 106.04002 C 130.76357 106.06489 130.76122 106.09477 130.76589 106.12957 C 130.77056 106.15937 130.77056 106.19416 130.76589 106.23396 C 130.76096 106.27376 130.751 106.30855 130.73606 106.33835 C 130.72613 106.36322 130.72115 106.38805 130.72115 106.41292 C 130.72115 106.44772 130.72866 106.47507 130.74359 106.49494 C 130.75819 106.51487 130.76317 106.5397 130.75851 106.5695 C 130.75351 106.60927 130.73113 106.64655 130.6914 106.68135 C 130.6516 106.71612 130.62171 106.7534 130.60185 106.7932 C 130.56705 106.86279 130.53977 106.95724 130.5199 107.07654 C 130.50003 107.19088 130.47015 107.30023 130.43035 107.40463 C 130.40548 107.46425 130.3782 107.51894 130.3484 107.56867 C 130.32354 107.61342 130.30614 107.65815 130.29621 107.70289 C 130.28127 107.7725 130.29369 107.82221 130.33349 107.85201 C 130.37823 107.88715 130.4354 107.90707 130.50499 107.91174 C 130.57458 107.91674 130.64666 107.91176 130.72123 107.89683 C 130.79581 107.88689 130.86043 107.87203 130.91509 107.85216 C 130.94496 107.84223 130.96979 107.82729 130.98966 107.80743 C 131.00952 107.78756 131.0319 107.7776 131.05677 107.7776 C 131.08657 107.7726 131.1189 107.77758 131.1537 107.79251 C 131.18853 107.81271 131.22581 107.82513 131.26555 107.82979 C 131.32522 107.83473 131.38736 107.82729 131.45196 107.80743 C 131.5166 107.78756 131.57625 107.77016 131.63091 107.75523 C 131.68561 107.7353 131.74527 107.71047 131.80987 107.68067 C 131.87946 107.65113 131.93165 107.63864 131.96645 107.64331 L 132.17426 107.62802 C 132.20406 107.61776 132.23886 107.61025 132.27866 107.60558 C 132.31839 107.60058 132.35816 107.59314 132.39796 107.58321 C 132.43769 107.57328 132.47746 107.56332 132.51726 107.55338 C 132.557 107.53818 132.59677 107.5283 132.63657 107.52363 C 132.74095 107.5137 132.84286 107.52358 132.94228 107.55338 C 133.04667 107.58318 133.14361 107.58816 133.23308 107.5683 C 133.25788 107.5633 133.29014 107.55088 133.32994 107.53101 C 133.36863 107.50684 133.40263 107.48977 133.43187 107.47971 C 133.41662 107.51093 133.4006 107.5406 133.38378 107.56867 C 133.35891 107.61342 133.34151 107.65815 133.33158 107.70289 C 133.31665 107.7725 133.32906 107.82221 133.36886 107.85201 C 133.4136 107.88715 133.47077 107.90707 133.54036 107.91174 C 133.60996 107.91674 133.68204 107.91176 133.7566 107.89683 C 133.83118 107.88689 133.8958 107.87203 133.95047 107.85216 C 133.98033 107.84223 134.00524 107.82729 134.02511 107.80743 C 134.04497 107.78756 134.06727 107.7776 134.09214 107.7776 C 134.12194 107.7726 134.15427 107.77758 134.18907 107.79251 C 134.2239 107.81271 134.26119 107.82513 134.30092 107.82979 C 134.3606 107.83473 134.42273 107.82729 134.48733 107.80743 C 134.55196 107.78756 134.61162 107.77016 134.66629 107.75523 C 134.72099 107.7353 134.78064 107.71047 134.84524 107.68067 C 134.91483 107.65113 134.96703 107.63864 135.00183 107.64331 L 135.20949 107.62802 C 135.23928 107.61776 135.27408 107.61025 135.31388 107.60558 C 135.35362 107.60058 135.39338 107.59314 135.43318 107.58321 C 135.47298 107.57328 135.51275 107.56332 135.55249 107.55338 C 135.59222 107.53818 135.63199 107.5283 135.67179 107.52363 C 135.77618 107.5137 135.87808 107.52358 135.9775 107.55338 C 136.08189 107.58318 136.17883 107.58816 136.26831 107.5683 C 136.29311 107.5633 136.32544 107.55088 136.36524 107.53101 C 136.40503 107.50615 136.43983 107.48875 136.46963 107.47882 C 136.4895 107.47415 136.50689 107.47415 136.52183 107.47882 C 136.53669 107.47882 136.55163 107.47384 136.56656 107.46391 C 136.61127 107.45397 136.65352 107.43911 136.69332 107.41924 C 136.73808 107.39438 136.78779 107.37445 136.84245 107.35952 C 136.90208 107.34458 136.95676 107.33715 137.00649 107.33715 C 137.06116 107.33715 137.11833 107.32964 137.17799 107.3147 C 137.21774 107.30477 137.26738 107.28737 137.32705 107.26251 C 137.39197 107.23765 137.42677 107.20285 137.43144 107.15812 C 137.43144 107.12832 137.42155 107.10594 137.40169 107.09101 C 137.38175 107.07608 137.35685 107.06864 137.32705 107.06864 C 137.29718 107.06397 137.26737 107.06397 137.23757 107.06864 L 137.17046 107.06864 C 137.08098 107.05871 136.98405 107.04622 136.87966 107.03128 C 136.77527 107.01168 136.68331 107.00941 136.60377 107.02435 C 136.58391 107.02935 136.56651 107.03678 136.55158 107.04672 C 136.54164 107.05172 136.52425 107.05915 136.49938 107.06909 C 136.44467 107.07902 136.38503 107.07902 136.32043 107.06909 C 136.26078 107.05415 136.19615 107.04174 136.12656 107.0318 C 136.05697 107.02247 135.98489 107.02013 135.91032 107.0248 C 135.84073 107.02946 135.77113 107.02946 135.70154 107.0248 C 135.60709 107.0148 135.51513 106.99494 135.42565 106.96514 C 135.33617 106.93528 135.25415 106.91037 135.17959 106.8905 C 135.12988 106.88024 135.08763 106.8728 135.05283 106.86814 C 135.02303 106.86347 134.99567 106.86347 134.97081 106.86814 C 134.94594 106.86814 134.91866 106.87048 134.88886 106.87514 C 134.85907 106.88014 134.82427 106.88758 134.78447 106.89751 C 134.77454 106.76827 134.78695 106.63405 134.82175 106.49487 C 134.85655 106.35568 134.88881 106.2314 134.91861 106.12204 C 134.92888 106.08227 134.93639 106.04002 134.94106 105.99528 C 134.95099 105.95054 134.96341 105.91078 134.97834 105.87598 C 135.0032 105.80141 135.038 105.73678 135.08273 105.68211 C 135.13243 105.62743 135.16971 105.5628 135.19458 105.48824 C 135.20451 105.45345 135.20949 105.41865 135.20949 105.38385 C 135.21449 105.34411 135.22193 105.29937 135.23186 105.24964 C 135.23686 105.22477 135.24437 105.19994 135.2543 105.17507 C 135.26924 105.15021 135.28165 105.12032 135.29158 105.08552 C 135.30185 105.05573 135.30929 105.02093 135.31395 104.98113 C 135.31922 104.93642 135.3242 104.89417 135.32887 104.85437 C 135.33413 104.78478 135.33911 104.70773 135.34378 104.62322 C 135.35405 104.53869 135.3517 104.46413 135.33677 104.39953 C 135.32684 104.36473 135.30446 104.33247 135.26966 104.30267 C 135.23986 104.26787 135.21258 104.23553 135.18772 104.20573 C 135.16284 104.17093 135.1181 104.13867 135.0535 104.10887 C 134.98889 104.07908 134.94913 104.04428 134.9342 104.00448 C 134.8994 103.93488 134.87204 103.87274 134.85218 103.81807 C 134.83731 103.76341 134.80498 103.70624 134.75524 103.64657 C 134.63596 103.63171 134.54648 103.65156 134.48681 103.70623 C 134.4321 103.76091 134.38985 103.83547 134.36005 103.92992 C 134.33518 104.0194 134.31779 104.12131 134.30785 104.23563 C 134.29792 104.34997 134.28306 104.45932 134.26319 104.56372 C 134.24826 104.6482 134.22335 104.72029 134.18855 104.77996 C 134.15868 104.8396 134.12887 104.89924 134.09907 104.95891 C 134.07421 105.01359 134.05183 105.07573 134.03197 105.14532 C 134.01703 105.21491 134.01703 105.3019 134.03197 105.4063 C 134.03697 105.4361 134.03199 105.48085 134.01705 105.54051 C 134.00212 105.59519 133.99468 105.63495 133.99468 105.65982 C 133.99468 105.70455 133.98717 105.74432 133.97224 105.77912 C 133.95737 105.81392 133.93753 105.84625 133.91266 105.87605 C 133.89273 105.90092 133.8728 105.92828 133.85294 105.95808 C 133.83307 105.98294 133.81821 106.01022 133.80827 106.04002 C 133.79894 106.06489 133.7966 106.09477 133.80126 106.12957 C 133.80593 106.15937 133.80593 106.19416 133.80126 106.23396 C 133.79633 106.27376 133.78637 106.30855 133.77144 106.33835 C 133.7615 106.36322 133.7566 106.38805 133.7566 106.41292 C 133.7566 106.44772 133.76404 106.47507 133.77897 106.49494 C 133.79357 106.51487 133.79855 106.5397 133.79388 106.5695 C 133.78895 106.60927 133.76657 106.64655 133.72677 106.68135 C 133.68697 106.71612 133.65716 106.7534 133.6373 106.7932 C 133.60764 106.85251 133.58341 106.92997 133.5646 107.02539 C 133.54635 107.03037 133.53022 107.03744 133.51628 107.04672 C 133.50634 107.05172 133.48895 107.05915 133.46408 107.06909 C 133.40938 107.07902 133.34973 107.07902 133.28513 107.06909 C 133.22547 107.05415 133.16085 107.04174 133.09126 107.0318 C 133.02167 107.02247 132.94959 107.02013 132.87502 107.0248 C 132.80543 107.02946 132.73584 107.02946 132.66624 107.0248 C 132.5718 107.0148 132.47983 106.99494 132.39035 106.96514 C 132.30088 106.93528 132.21886 106.91037 132.14429 106.8905 C 132.09458 106.88024 132.05233 106.8728 132.01753 106.86814 C 131.98773 106.86347 131.96045 106.86347 131.93558 106.86814 C 131.91072 106.86814 131.88336 106.87048 131.85356 106.87514 C 131.8237 106.88014 131.78891 106.88758 131.74917 106.89751 C 131.73924 106.76827 131.75165 106.63405 131.78645 106.49487 C 131.82125 106.35568 131.85359 106.2314 131.88339 106.12204 C 131.89366 106.08227 131.90109 106.04002 131.90576 105.99528 C 131.91569 105.95054 131.92811 105.91078 131.94304 105.87598 C 131.9679 105.80141 132.0027 105.73678 132.04743 105.68211 C 132.09712 105.62743 132.13441 105.5628 132.15928 105.48824 C 132.16921 105.45345 132.17419 105.41865 132.17419 105.38385 C 132.17919 105.34411 132.18663 105.29937 132.19656 105.24964 C 132.20156 105.22477 132.20907 105.19994 132.219 105.17507 C 132.23394 105.15021 132.24635 105.12032 132.25629 105.08552 C 132.26655 105.05573 132.27399 105.02093 132.27866 104.98113 C 132.28392 104.93642 132.2889 104.89417 132.29357 104.85437 C 132.29883 104.78478 132.30381 104.70773 132.30848 104.62322 C 132.31875 104.53869 132.31641 104.46413 132.30147 104.39953 C 132.29154 104.36473 132.26916 104.33247 132.23436 104.30267 C 132.20456 104.26787 132.17728 104.23553 132.15242 104.20573 C 132.12754 104.17093 132.0828 104.13867 132.0182 104.10887 C 131.9536 104.07908 131.91383 104.04428 131.8989 104.00448 C 131.8641 103.93488 131.83674 103.87274 131.81688 103.81807 C 131.80201 103.76341 131.76968 103.70624 131.71994 103.64657 C 131.69385 103.64332 131.66922 103.64173 131.64598 103.6418 z M 128.94599 104.12386 L 128.94666 104.12476 C 128.9566 104.12476 128.96656 104.1271 128.97649 104.13177 C 128.98642 104.13643 129.00382 104.13643 129.02869 104.13177 C 129.09331 104.17152 129.14799 104.22123 129.19273 104.28089 C 129.23743 104.34057 129.27969 104.40271 129.31949 104.46731 C 129.35927 104.50704 129.41147 104.53439 129.47607 104.54933 C 129.54566 104.56426 129.59288 104.59407 129.61774 104.6388 C 129.63761 104.67358 129.6475 104.71583 129.6475 104.76556 C 129.6475 104.81032 129.64984 104.86003 129.65451 104.91469 C 129.66444 104.99423 129.67685 105.05637 129.69179 105.1011 C 129.71139 105.14584 129.7189 105.21544 129.71423 105.30989 C 129.7043 105.48387 129.69188 105.633 129.67695 105.75727 C 129.66205 105.88155 129.62477 106.01079 129.5651 106.14501 C 129.53524 106.20468 129.51033 106.26682 129.49046 106.33142 C 129.47053 106.39605 129.4457 106.45571 129.4159 106.51037 C 129.40097 106.53524 129.38357 106.56007 129.3637 106.58494 C 129.34877 106.60481 129.33628 106.62718 129.32635 106.65205 C 129.28654 106.75149 129.24678 106.83351 129.20704 106.89811 C 129.16728 106.95774 129.10017 107.0174 129.00572 107.07707 C 128.94109 107.11684 128.86902 107.15909 128.78948 107.20383 C 128.70994 107.24363 128.64282 107.27351 128.58816 107.29338 C 128.49868 107.31791 128.41417 107.32025 128.33464 107.30039 C 128.26005 107.27553 128.19046 107.24073 128.12586 107.196 C 128.06622 107.14626 128.01155 107.08902 127.96182 107.02442 C 127.91706 106.95484 127.87977 106.89022 127.84997 106.83055 C 127.83004 106.79579 127.81018 106.75851 127.79032 106.71871 C 127.77538 106.67397 127.75799 106.6293 127.73812 106.58457 C 127.72319 106.54479 127.70579 106.50254 127.68593 106.45781 C 127.67073 106.40807 127.66077 106.36823 127.6561 106.33843 C 127.64123 106.20422 127.65365 106.06261 127.69338 105.91349 C 127.73316 105.76435 127.77541 105.63014 127.82014 105.51084 C 127.85991 105.3965 127.89719 105.2772 127.93199 105.15293 C 127.97176 105.02865 128.03389 104.91922 128.1184 104.82477 C 128.13327 104.8049 128.15311 104.79004 128.17798 104.7801 C 128.20778 104.76517 128.23513 104.74524 128.26 104.72038 C 128.31966 104.65576 128.37185 104.58367 128.41658 104.50414 C 128.46628 104.41962 128.52096 104.35003 128.58063 104.29536 C 128.59556 104.28543 128.61793 104.27056 128.64773 104.2507 C 128.67753 104.23083 128.70987 104.21343 128.74467 104.1985 C 128.78444 104.17863 128.82172 104.16124 128.85652 104.14631 C 128.89632 104.13137 128.92613 104.12386 128.94599 104.12386 z " /></g></g></g><g
     id="pollymc-header-text-4"
     fill="white"
     transform="matrix(6.9306,0,0,6.9306,-697.30938,-585.54339)"
     stroke-width="0.26458"
     aria-label="PolyMC"
     style="fill:#ffffff;fill-opacity:1"
     inkscape:label="pollymc-header-text-4" /><g
     id="g5269"
     clip-path="url(#clipPath5628)"
     transform="matrix(2.2049154,0,0,2.2049154,5.9126449,-7.2321236)"
     inkscape:path-effect="#path-effect5638"><path
       id="rect883"
       style="fill:#8acb01"
       d="M 8,16 H 56 V 52 H 8 Z"
       inkscape:original-d="M 8,16 H 56 V 52 H 8 Z" /><path
       id="rect1721"
       style="fill:#313131"
       d="M 32,28 H 56 V 52 H 32 Z"
       inkscape:original-d="M 32,28 H 56 V 52 H 32 Z" /><path
       id="rect3491"
       d="M 20,28 H 32 V 40 H 20 Z"
       inkscape:original-d="M 20,28 H 32 V 40 H 20 Z" /><path
       id="rect3493"
       style="fill:#b0af8d"
       d="M 20,40 H 32 V 52 H 20 Z"
       inkscape:original-d="M 20,40 H 32 V 52 H 20 Z" /></g></svg>
