<?xml version="1.0" encoding="UTF-8" standalone="no"?>
<!-- Created with Inkscape (http://www.inkscape.org/) -->

<svg
   width="1424"
   height="512"
   version="1.1"
   viewBox="0 0 376.77 135.47"
   id="svg866"
   sodipodi:docname="pollymc-header.svg"
   inkscape:version="1.2.1 (9c6d41e410, 2022-07-14)"
   xml:space="preserve"
   xmlns:inkscape="http://www.inkscape.org/namespaces/inkscape"
   xmlns:sodipodi="http://sodipodi.sourceforge.net/DTD/sodipodi-0.dtd"
   xmlns="http://www.w3.org/2000/svg"
   xmlns:svg="http://www.w3.org/2000/svg"><sodipodi:namedview
     id="namedview868"
     pagecolor="#8a8a8a"
     bordercolor="#666666"
     borderopacity="1.0"
     inkscape:pageshadow="2"
     inkscape:pageopacity="0"
     inkscape:pagecheckerboard="0"
     showgrid="false"
     inkscape:zoom="0.61938202"
     inkscape:cx="540.86168"
     inkscape:cy="261.55102"
     inkscape:window-width="1920"
     inkscape:window-height="994"
     inkscape:window-x="0"
     inkscape:window-y="0"
     inkscape:window-maximized="1"
     inkscape:current-layer="svg866"
     inkscape:showpageshadow="2"
     inkscape:deskcolor="#343434" /><defs
     id="defs831"><linearGradient
       id="linearGradient84726"
       x1="4.4979"
       x2="12.435"
       y1="3.8011"
       y2="9.5681"
       gradientUnits="userSpaceOnUse"><stop
         stop-color="#88b858"
         offset="0"
         id="stop824" /><stop
         stop-color="#72b147"
         offset=".5"
         id="stop826" /><stop
         stop-color="#5a9a30"
         offset="1"
         id="stop828" /></linearGradient><inkscape:path-effect
       effect="powerclip"
       id="path-effect5638"
       is_visible="true"
       lpeversion="1"
       inverse="true"
       flatten="false"
       hide_clip="false"
       message="Use fill-rule evenodd on &lt;b&gt;fill and stroke&lt;/b&gt; dialog if no flatten result after convert clip to paths." /><inkscape:path-effect
       effect="powerclip"
       id="path-effect5562"
       is_visible="true"
       lpeversion="1"
       inverse="true"
       flatten="false"
       hide_clip="false"
       message="Use fill-rule evenodd on &lt;b&gt;fill and stroke&lt;/b&gt; dialog if no flatten result after convert clip to paths." /><inkscape:path-effect
       effect="powerclip"
       id="path-effect5535"
       is_visible="true"
       lpeversion="1"
       inverse="true"
       flatten="false"
       hide_clip="false"
       message="Use fill-rule evenodd on &lt;b&gt;fill and stroke&lt;/b&gt; dialog if no flatten result after convert clip to paths." /><clipPath
       clipPathUnits="userSpaceOnUse"
       id="clipPath5628"><g
         id="g5636"
         style="display:block"><rect
           style="display:block;fill:#000000;fill-opacity:1"
           id="rect5630"
           width="12"
           height="6"
           x="44"
           y="46" /><rect
           style="fill:#000000;fill-opacity:1"
           id="rect5632"
           width="12"
           height="3"
           x="32"
           y="49" /><rect
           style="fill:#000000;fill-opacity:1"
           id="rect5634"
           width="2"
           height="18"
           x="54"
           y="28" /></g></clipPath><inkscape:path-effect
       effect="powerclip"
       id="path-effect5638-3"
       is_visible="true"
       lpeversion="1"
       inverse="true"
       flatten="false"
       hide_clip="false"
       message="Use fill-rule evenodd on &lt;b&gt;fill and stroke&lt;/b&gt; dialog if no flatten result after convert clip to paths." /><inkscape:path-effect
       effect="powerclip"
       id="path-effect5562-6"
       is_visible="true"
       lpeversion="1"
       inverse="true"
       flatten="false"
       hide_clip="false"
       message="Use fill-rule evenodd on &lt;b&gt;fill and stroke&lt;/b&gt; dialog if no flatten result after convert clip to paths." /><inkscape:path-effect
       effect="powerclip"
       id="path-effect5535-7"
       is_visible="true"
       lpeversion="1"
       inverse="true"
       flatten="false"
       hide_clip="false"
       message="Use fill-rule evenodd on &lt;b&gt;fill and stroke&lt;/b&gt; dialog if no flatten result after convert clip to paths." /></defs><path
     id="path366"
     d="m 349.57808,41.964912 c -7.15702,0.185463 -13.90791,2.613183 -17.28304,8.999038 -4.79383,5.704508 -7.73137,13.695628 -5.53014,21.084479 2.66676,7.143578 9.90418,12.218856 18.03557,11.524063 5.59916,-1.801124 15.58671,-4.301962 16.74627,-10.179734 -5.8829,3.318579 -12.62679,3.146423 -19.06899,2.789913 -9.10036,-2.852705 -3.13131,-14.017277 -2.27587,-20.464537 2.69441,-6.264223 9.40746,-8.643637 15.70994,-8.011982 3.51215,-0.372935 10.08541,-0.820306 11.1627,-4.595542 -6.0613,0.990313 -11.56994,-0.578913 -17.49644,-1.145698 z m -195.18302,0.620289 c 1.08651,4.477722 2.68304,11.49343 -0.6749,16.798527 -1.55052,6.175788 -2.33763,12.334458 -5.215,18.241616 -1.35584,2.554065 -7.50487,7.052648 -0.82675,4.755016 4.76028,-2.480601 17.99973,2.432918 12.91884,-5.840902 -1.39866,-9.413834 8.45665,-6.696276 14.10661,-8.710863 7.28254,-1.468386 14.43,-9.613297 11.16271,-17.234393 -4.56069,-7.344772 -13.49416,-8.163761 -21.42041,-6.839462 -3.3838,0.05191 -6.82193,-0.05344 -10.0511,-1.169539 z m 182.07705,0.09148 c -7.27914,0.108256 -14.59072,2.741399 -21.75606,0.778999 -4.991,3.565863 -7.77994,12.64093 -12.03983,18.503663 -2.14031,5.510728 -2.07316,-6.457795 -3.72035,-8.578489 -0.79279,-5.270167 3.63475,-12.65881 -5.26774,-9.354023 -3.09389,2.249188 -15.27657,-4.037213 -11.26597,1.965588 0.54461,6.775493 -2.27379,9.969529 -8.62513,9.510862 -2.98903,4.118301 -5.87154,12.661305 -9.97293,13.902368 -2.51899,-3.989461 -0.87242,-11.912385 -3.96867,-14.731198 -3.01592,-1.460278 -13.34639,-0.84692 -6.00266,3.15273 2.92679,6.391676 3.36418,13.462759 5.57775,19.843347 -2.4691,5.5984 -8.76894,9.147144 -13.54288,11.473054 -2.79781,0.934175 -11.57909,2.363404 -4.13459,4.135489 8.03174,0.990452 14.8003,-3.903383 19.99776,-8.990236 6.24614,-5.646776 9.5074,-13.333019 15.19292,-19.605351 2.80107,1.250281 -6.54332,13.073884 0.51404,15.366527 0.18172,0.518894 5.40421,5.956989 5.63264,0.103127 2.11307,-6.607287 4.28567,-12.785779 5.89198,-19.792546 -0.133,-3.696435 2.7816,-10.701124 3.25877,-2.996861 1.54282,6.041127 3.35233,12.30937 4.59658,18.191093 -0.59451,5.677201 4.12523,13.022666 6.86483,4.056203 3.96104,-7.949676 7.36425,-15.925826 12.82909,-22.970781 1.81423,-3.273877 5.01083,-6.344618 3.25579,-0.620289 -1.51711,6.921521 -3.1729,13.704569 -4.90388,20.438756 -2.84141,3.956818 -2.37242,9.821076 2.57991,5.194969 7.70454,-2.24295 5.11063,-13.591391 8.21498,-19.740913 2.05853,-5.624528 2.20587,-12.452139 7.43792,-16.432383 0.36109,-1.581702 5.20072,-0.498449 3.35573,-2.803705 z m -166.11484,4.397258 c 8.97928,1.320348 5.56479,13.482512 0.161,16.543203 -4.36808,3.5642 -9.8007,0.439955 -6.05201,-4.806024 1.24619,-3.62408 1.41301,-11.320026 5.89101,-11.737179 z m 29.62007,6.144462 c -7.65755,-0.482301 -12.92848,5.666597 -16.95183,11.279413 -4.01199,6.908075 0.21588,15.253072 7.23409,17.674069 5.57982,2.250158 12.28289,-0.821553 16.38213,-4.602958 4.61883,-5.660844 6.56938,-15.449485 0.7623,-20.967768 -1.67707,-2.483372 -4.50863,-3.536893 -7.42669,-3.382756 z m 17.00873,0.18574 c -4.51459,4.004916 -3.61895,12.391913 -6.09983,17.96467 -0.0584,4.101737 -7.40846,14.609635 2.01542,10.698767 5.16745,0.178047 10.47144,-2.400136 15.7545,-1.709779 -0.74497,4.170696 8.77414,1.431377 12.95572,0.676981 5.2211,-0.783019 10.30427,-0.571913 15.26381,-2.848546 -2.9857,-3.074899 -10.91964,0.410846 -15.40159,-2.268524 -6.95278,-0.839157 2.24558,-10.541304 1.13793,-15.714235 -0.4911,-4.912201 -7.83768,-10.120686 -7.30797,-1.523484 -1.90813,5.501579 -2.54776,11.475826 -4.51778,16.562748 -1.51662,4.086281 -11.87648,1.069253 -13.07444,-0.646625 0.10147,-6.117086 7.90816,-13.956704 1.02684,-18.681848 -0.69396,-0.48736 -0.44252,-2.829487 -1.75261,-2.510125 z m -18.71255,3.340965 c 6.85512,2.50063 6.28494,11.569389 2.8947,17.056969 -3.21268,10.078271 -15.45066,1.74658 -11.15036,-6.126235 1.1073,-4.284843 3.9223,-9.322973 8.25566,-10.930734 z"
     style="font-size:7.63541px;line-height:1.25;font-family:'Trade Winds';-inkscape-font-specification:'Trade Winds, Normal';letter-spacing:-0.610833px;word-spacing:0px;fill:#ffffff;fill-opacity:1;stroke-width:0.0700053" /><g
     id="g5269"
     clip-path="none"
     transform="matrix(2.2049154,0,0,2.2049154,5.9126449,-7.2321236)"><path
       id="path300"
       style="fill:#8acb01"
       d="m 8,16 c 0,12 0,24 0,36 8.010417,0 16.020833,0 24.03125,0 0,-0.8 0,-1.6 0,-2.4 3.714062,0 7.428125,0 11.142187,0 0,-0.8 0,-1.6 0,-2.4 4.275521,0 8.551042,0 12.826563,0 C 56,36.8 56,26.4 56,16 40,16 24,16 8,16 Z"
       inkscape:label="head" /><path
       id="rect3493-3"
       style="fill:#b0af8d;stroke-width:1.39562"
       inkscape:label="cheek"
       d="M 19.959999,28.879064 H 32.253197 V 52 H 19.959999 Z" /><path
       id="rect3491-5"
       inkscape:label="eye"
       d="M 19.960001,28 H 32.333299 V 40 H 19.960001 Z"
       style="stroke-width:1.00871" /><path
       id="path352"
       style="display:inline;fill:#3b3b3b;fill-opacity:1;stroke-width:1.00922"
       d="m 32,28 c 0,7.333333 0,14.666667 0,22 4,0 8,0 12,0 0,-0.814583 0,-1.629167 0,-2.44375 4,0 8,0 12,0 C 56,41.0375 56,34.51875 56,28 48,28 40,28 32,28 Z"
       inkscape:label="beak" /></g></svg>
